static pose
version=1
nRows=1
nColumns=38
inDegrees=yes
endheader
time	pelvis_tilt	pelvis_list	pelvis_rotation	pelvis_tx	pelvis_ty	pelvis_tz	hip_flexion_r	hip_adduction_r	hip_rotation_r	knee_angle_r	ankle_angle_r	subtalar_angle_r	mtp_angle_r	hip_flexion_l	hip_adduction_l	hip_rotation_l	knee_angle_l	ankle_angle_l	subtalar_angle_l	mtp_angle_l	lumbar_extension	lumbar_bending	lumbar_rotation	arm_flex_r	arm_add_r	arm_rot_r	elbow_flex_r	pro_sup_r	wrist_flex_r	wrist_dev_r	arm_flex_l	arm_add_l	arm_rot_l	elbow_flex_l	pro_sup_l	wrist_flex_l	wrist_dev_l
      0.00000000	      5.00681033	     -5.18784167	      1.79996127	     -0.14568297	      0.90864283	      0.00025440	     -7.03971722	      5.47843700	      7.90142804	     -1.96670778	      5.52344278	      0.00000000	      0.00000000	    -11.88681317	     -6.20732593	      9.24290272	      6.63600325	      9.20430798	      0.00000000	      0.00000000	    -12.34274670	      3.89473984	      0.07125300	      5.78698423	     -3.72988764	    -42.93681811	     21.67749886	    110.85578062	      0.00000000	      0.00000000	      6.53562414	     -1.30158370	    -58.32719978	     24.81595140	    111.21571083	      0.00000000	      0.00000000
